<?xml version="1.0" encoding="UTF-8" standalone="no"?>
<!-- Created with Inkscape (http://www.inkscape.org/) -->

<svg
   xmlns:dc="http://purl.org/dc/elements/1.1/"
   xmlns:cc="http://creativecommons.org/ns#"
   xmlns:rdf="http://www.w3.org/1999/02/22-rdf-syntax-ns#"
   xmlns:svg="http://www.w3.org/2000/svg"
   xmlns="http://www.w3.org/2000/svg"
   xmlns:sodipodi="http://sodipodi.sourceforge.net/DTD/sodipodi-0.dtd"
   xmlns:inkscape="http://www.inkscape.org/namespaces/inkscape"
   width="210mm"
   height="297mm"
   viewBox="0 0 210 297"
   version="1.1"
   id="svg8"
   inkscape:version="0.92.3 (2405546, 2018-03-11)"
   sodipodi:docname="logo.svg">
  <defs
     id="defs2" />
  <sodipodi:namedview
     id="base"
     pagecolor="#ffffff"
     bordercolor="#666666"
     borderopacity="1.0"
     inkscape:pageopacity="0.0"
     inkscape:pageshadow="2"
     inkscape:zoom="0.98994949"
     inkscape:cx="108.7751"
     inkscape:cy="642.06933"
     inkscape:document-units="mm"
     inkscape:current-layer="layer1"
     showgrid="false"
     inkscape:snap-global="true"
     inkscape:snap-bbox="true"
     inkscape:window-width="1920"
     inkscape:window-height="1046"
     inkscape:window-x="1589"
     inkscape:window-y="-11"
     inkscape:window-maximized="1" />
  <metadata
     id="metadata5">
    <rdf:RDF>
      <cc:Work
         rdf:about="">
        <dc:format>image/svg+xml</dc:format>
        <dc:type
           rdf:resource="http://purl.org/dc/dcmitype/StillImage" />
        <dc:title />
      </cc:Work>
    </rdf:RDF>
  </metadata>
  <g
     inkscape:label="Layer 1"
     inkscape:groupmode="layer"
     id="layer1">
    <g
       id="g900"
       transform="matrix(0.7418059,0,0,0.7418059,34.4247,30.37378)"
       inkscape:export-xdpi="100"
       inkscape:export-ydpi="100">
      <rect
         transform="matrix(0.8660254,-0.5,0,1,0,0)"
         y="72.796898"
         x="-21.846003"
         height="157.26437"
         width="87.336937"
         id="rect817-3"
         style="opacity:1;fill:#ffffff;fill-opacity:1;fill-rule:nonzero;stroke:none;stroke-width:5.1052289;stroke-linecap:round;stroke-linejoin:miter;stroke-miterlimit:4;stroke-dasharray:none;stroke-opacity:1" />
      <rect
         transform="matrix(0.8660254,-0.5,0,1,0,0)"
         y="80.697968"
         x="-17.457972"
         height="141.46223"
         width="78.560875"
         id="rect817"
         style="opacity:1;fill:#232f3f;fill-opacity:1;fill-rule:nonzero;stroke:none;stroke-width:4.59224081;stroke-linecap:round;stroke-linejoin:miter;stroke-miterlimit:4;stroke-dasharray:none;stroke-opacity:1" />
      <rect
         transform="matrix(-0.8660254,-0.5,0,1,0,0)"
         y="7.3059635"
         x="-152.82787"
         height="157.26437"
         width="87.336937"
         id="rect817-3-9"
         style="opacity:1;fill:#ffffff;fill-opacity:1;fill-rule:nonzero;stroke:none;stroke-width:5.1052289;stroke-linecap:round;stroke-linejoin:miter;stroke-miterlimit:4;stroke-dasharray:none;stroke-opacity:1" />
      <rect
         transform="matrix(-0.8660254,-0.5,0,1,0,0)"
         y="15.207033"
         x="-148.43983"
         height="141.46223"
         width="78.560875"
         id="rect817-4"
         style="opacity:1;fill:#232f3f;fill-opacity:1;fill-rule:nonzero;stroke:none;stroke-width:4.59224081;stroke-linecap:round;stroke-linejoin:miter;stroke-miterlimit:4;stroke-dasharray:none;stroke-opacity:1" />
      <rect
         transform="matrix(0.8660254,-0.5,0,1,0,0)"
         y="160.13383"
         x="152.82787"
         height="157.26437"
         width="87.336937"
         id="rect817-3-5"
         style="opacity:1;fill:#ffffff;fill-opacity:1;fill-rule:nonzero;stroke:none;stroke-width:5.1052289;stroke-linecap:round;stroke-linejoin:miter;stroke-miterlimit:4;stroke-dasharray:none;stroke-opacity:1" />
      <rect
         transform="matrix(0.8660254,-0.5,0,1,0,0)"
         y="168.0349"
         x="157.2159"
         height="141.46223"
         width="78.560875"
         id="rect817-0"
         style="opacity:1;fill:#232f3f;fill-opacity:1;fill-rule:nonzero;stroke:none;stroke-width:4.59224081;stroke-linecap:round;stroke-linejoin:miter;stroke-miterlimit:4;stroke-dasharray:none;stroke-opacity:1" />
      <g
         id="g1079">
        <path
           style="fill:none;fill-opacity:0.29674796;stroke:#4893fb;stroke-width:5;stroke-linecap:round;stroke-linejoin:round;stroke-miterlimit:4;stroke-dasharray:none;stroke-opacity:1"
           d="m 2.4054265,115.88689 c 0,0 1.3599727,2.46744 14.5188505,-0.14244 11.189075,-2.2192 12.972279,-14.64698 18.890083,-21.421261 6.998041,-8.01086 17.105005,-10.337003 17.105005,-10.337003"
           id="path1015"
           inkscape:connector-curvature="0"
           sodipodi:nodetypes="cssc" />
        <rect
           style="opacity:0.98299997;fill:#ffffff;fill-opacity:1;fill-rule:nonzero;stroke:none;stroke-width:3.24619818;stroke-linecap:round;stroke-linejoin:round;stroke-miterlimit:4;stroke-dasharray:none;stroke-opacity:1"
           id="rect1036"
           width="3.1864319"
           height="12.473213"
           x="52.913921"
           y="76.002045" />
      </g>
      <g
         id="g1091">
        <g
           id="g1075">
          <path
             sodipodi:nodetypes="cssc"
             inkscape:connector-curvature="0"
             id="path1017"
             d="m 60.670183,81.58076 c 0,0 13.30833,-4.978136 18.613464,5.93492 24.975473,51.37642 -1.918921,64.47747 31.800273,102.19762 6.51268,7.28544 16.93818,9.19878 16.93818,9.19878"
             style="fill:none;stroke:#4893fb;stroke-width:5;stroke-linecap:round;stroke-linejoin:miter;stroke-miterlimit:4;stroke-dasharray:none;stroke-opacity:1" />
          <rect
             y="74.891747"
             x="57.347446"
             height="12.473213"
             width="3.1864319"
             id="rect1036-8"
             style="opacity:0.98299997;fill:#ffffff;fill-opacity:1;fill-rule:nonzero;stroke:none;stroke-width:3.24619818;stroke-linecap:round;stroke-linejoin:round;stroke-miterlimit:4;stroke-dasharray:none;stroke-opacity:1" />
        </g>
        <rect
           style="opacity:0.98299997;fill:#ffffff;fill-opacity:1;fill-rule:nonzero;stroke:none;stroke-width:3.24619818;stroke-linecap:round;stroke-linejoin:round;stroke-miterlimit:4;stroke-dasharray:none;stroke-opacity:1"
           id="rect1036-5"
           width="3.1864319"
           height="12.473213"
           x="128.57275"
           y="193.64449" />
      </g>
      <g
         id="g1101">
        <path
           style="fill:none;stroke:#4893fb;stroke-width:5;stroke-linecap:round;stroke-linejoin:miter;stroke-miterlimit:4;stroke-dasharray:none;stroke-opacity:1"
           d="m 186.91407,188.39318 c 0.4302,-0.16389 1.39409,10.23738 -20.27887,12.67365 -19.88134,2.23487 -31.95168,-1.08567 -31.12955,-1.08567"
           id="path1019"
           inkscape:connector-curvature="0"
           sodipodi:nodetypes="csc" />
        <rect
           style="opacity:0.98299997;fill:#ffffff;fill-opacity:1;fill-rule:nonzero;stroke:none;stroke-width:3.24619818;stroke-linecap:round;stroke-linejoin:round;stroke-miterlimit:4;stroke-dasharray:none;stroke-opacity:1"
           id="rect1036-80"
           width="3.1864319"
           height="12.473213"
           x="132.91017"
           y="195.41499" />
      </g>
      <path
         style="fill:#e85f62;fill-opacity:1;stroke-width:3.36398625"
         inkscape:connector-curvature="0"
         d="m 2.4054265,102.5967 a 2.3800696,4.2069917 36.948943 0 1 -3.16433997,-1.33739 2.3800696,4.2069917 36.948943 0 1 3.16433997,-4.99126 2.3800696,4.2069917 36.948943 0 1 3.16433,1.337403 2.3800696,4.2069917 36.948943 0 1 -3.16433,4.991247 m 0,-12.02441 a 6.6641949,11.779577 36.948943 0 0 -8.86009,13.97546 c 0,6.64511 8.86009,11.33914 8.86009,11.33914 0,0 8.8600805,-14.92477 8.8600805,-21.56988 A 6.6641949,11.779577 36.948943 0 0 2.4054265,90.57229 Z"
         id="path902-8" />
      <path
         style="fill:#47e86d;fill-opacity:1;stroke-width:3.36398625"
         inkscape:connector-curvature="0"
         d="m 186.91407,175.10299 a 2.3800695,4.2069916 36.948943 0 1 -3.16434,-1.33739 2.3800695,4.2069916 36.948943 0 1 3.16434,-4.99126 2.3800695,4.2069916 36.948943 0 1 3.16433,1.3374 2.3800695,4.2069916 36.948943 0 1 -3.16433,4.99125 m 0,-12.02441 a 6.6641948,11.779577 36.948943 0 0 -8.86009,13.97546 c 0,6.64511 8.86009,11.33914 8.86009,11.33914 0,0 8.86008,-14.92477 8.86008,-21.56988 a 6.6641948,11.779577 36.948943 0 0 -8.86008,-3.74472 z"
         id="path902" />
      <text
         transform="skewY(-30)"
         id="text871"
         y="213.22334"
         x="-10.613464"
         style="font-style:normal;font-variant:normal;font-weight:normal;font-stretch:normal;font-size:42.33333206px;line-height:1.25;font-family:Audiowide;-inkscape-font-specification:Audiowide;letter-spacing:0px;word-spacing:0px;fill:#232f3f;fill-opacity:1;stroke:#ffffff;stroke-width:2;stroke-miterlimit:4;stroke-dasharray:none;stroke-opacity:1"
         xml:space="preserve"><tspan
           style="font-style:normal;font-variant:normal;font-weight:normal;font-stretch:normal;font-size:42.33333206px;font-family:Audiowide;-inkscape-font-specification:Audiowide;fill:#232f3f;fill-opacity:1;stroke:#ffffff;stroke-width:2;stroke-miterlimit:4;stroke-dasharray:none;stroke-opacity:1"
           y="213.22334"
           x="-10.613464"
           id="tspan869"
           sodipodi:role="line">V</tspan></text>
      <text
         transform="skewY(-30)"
         id="text875"
         y="208.35773"
         x="165.87711"
         style="font-style:normal;font-variant:normal;font-weight:normal;font-stretch:normal;font-size:21.16666603px;line-height:1.25;font-family:'Roboto Condensed';-inkscape-font-specification:'Roboto Condensed, ';letter-spacing:0px;word-spacing:0px;fill:#232f3f;fill-opacity:1;stroke:#ffffff;stroke-width:2;stroke-miterlimit:4;stroke-dasharray:none;stroke-opacity:1"
         xml:space="preserve"><tspan
           style="font-style:normal;font-variant:normal;font-weight:normal;font-stretch:normal;font-size:42.33333206px;font-family:Audiowide;-inkscape-font-specification:Audiowide;fill:#232f3f;fill-opacity:1;stroke:#ffffff;stroke-width:2;stroke-miterlimit:4;stroke-dasharray:none;stroke-opacity:1"
           y="208.35773"
           x="165.87711"
           id="tspan873"
           sodipodi:role="line">A</tspan></text>
    </g>
  </g>
</svg>
