<?xml version="1.0" encoding="UTF-8" standalone="no"?>
<!-- Created with Inkscape (http://www.inkscape.org/) -->

<svg
   xmlns:dc="http://purl.org/dc/elements/1.1/"
   xmlns:cc="http://creativecommons.org/ns#"
   xmlns:rdf="http://www.w3.org/1999/02/22-rdf-syntax-ns#"
   xmlns:svg="http://www.w3.org/2000/svg"
   xmlns="http://www.w3.org/2000/svg"
   xmlns:sodipodi="http://sodipodi.sourceforge.net/DTD/sodipodi-0.dtd"
   xmlns:inkscape="http://www.inkscape.org/namespaces/inkscape"
   width="210mm"
   height="297mm"
   viewBox="0 0 210 297"
   version="1.1"
   id="svg8"
   inkscape:version="0.92.3 (2405546, 2018-03-11)"
   sodipodi:docname="logo2.svg">
  <defs
     id="defs2" />
  <sodipodi:namedview
     id="base"
     pagecolor="#ffffff"
     bordercolor="#666666"
     borderopacity="1.0"
     inkscape:pageopacity="0.0"
     inkscape:pageshadow="2"
     inkscape:zoom="0.7"
     inkscape:cx="341.2176"
     inkscape:cy="665.21441"
     inkscape:document-units="mm"
     inkscape:current-layer="layer1"
     showgrid="false"
     inkscape:window-width="1920"
     inkscape:window-height="1046"
     inkscape:window-x="1589"
     inkscape:window-y="-11"
     inkscape:window-maximized="1" />
  <metadata
     id="metadata5">
    <rdf:RDF>
      <cc:Work
         rdf:about="">
        <dc:format>image/svg+xml</dc:format>
        <dc:type
           rdf:resource="http://purl.org/dc/dcmitype/StillImage" />
        <dc:title></dc:title>
      </cc:Work>
    </rdf:RDF>
  </metadata>
  <g
     inkscape:label="Layer 1"
     inkscape:groupmode="layer"
     id="layer1">
    <circle
       style="opacity:1;fill:#232f3f;fill-opacity:1;fill-rule:nonzero;stroke:none;stroke-width:2.27659583;stroke-linecap:round;stroke-linejoin:round;stroke-miterlimit:4;stroke-dasharray:none;stroke-opacity:1"
       id="path905"
       cx="109.23511"
       cy="117.08334"
       r="121.33036"
       inkscape:export-filename="C:\Users\emjei\OneDrive\Programming\VizAlgo\PathFinder\Documentation\UI\pngs\logo2.png"
       inkscape:export-xdpi="162.97362"
       inkscape:export-ydpi="162.97362" />
    <g
       id="g910"
       transform="translate(3.1122894,3.8256935)"
       inkscape:export-filename="C:\Users\emjei\OneDrive\Programming\VizAlgo\PathFinder\Documentation\UI\pngs\logo2.png"
       inkscape:export-xdpi="162.97362"
       inkscape:export-ydpi="162.97362">
      <path
         inkscape:connector-curvature="0"
         inkscape:export-ydpi="162.97362"
         inkscape:export-xdpi="162.97362"
         inkscape:export-filename="C:\Users\emjei\OneDrive\Programming\VizAlgo\PathFinder\Documentation\UI\pngs\logo-white.png"
         id="rect817"
         d="M 75.250026,46.21961 24.780756,75.3584 v 104.93726 l 50.46927,-29.13827 V 73.245866 c -1.533705,0.439867 -7.230483,2.316565 -11.290268,6.963918 -1.705803,1.952683 -1.599266,4.270237 -2.122866,8.080126 -0.523603,3.809889 -1.839659,8.705009 -6.781498,14.41824 -3.581726,4.14079 -7.57359,5.10125 -10.498069,4.74028 -2.924477,-0.36097 -4.900475,-1.91254 -4.900475,-1.91254 a 1.8550128,1.8550128 0 0 1 -0.428916,-2.41691 C 36.5097,101.32789 31.20827,97.150882 31.20827,91.800806 a 7.2129059,12.749475 36.948943 0 1 9.589596,-15.126207 7.2129059,12.749475 36.948943 0 1 9.589595,4.052982 c 0,5.874012 -6.326015,17.591633 -8.67079,21.738729 a 1.8550128,1.8550128 0 0 1 0.221694,0.14417 c -2e-6,0 1.196356,0.92448 3.072162,1.156 1.875806,0.23153 4.311827,-0.0988 7.240386,-3.48454 4.49221,-5.193405 5.436315,-9.038288 5.911784,-12.497942 0.47547,-3.459658 0.319895,-6.940825 3.00395,-10.013342 5.656207,-6.474825 13.669967,-8.255828 13.669967,-8.255828 a 1.8547001,1.8547001 0 0 1 0.413412,-0.05116 z m -32.8104,36.09082 a 2.5760379,4.5533836 36.948943 0 0 -1.64176,0.528651 2.5760379,4.5533836 36.948943 0 0 -3.425114,5.402254 2.5760379,4.5533836 36.948943 0 0 3.425114,1.447456 2.5760379,4.5533836 36.948943 0 0 3.425113,-5.401738 2.5760379,4.5533836 36.948943 0 0 -1.783353,-1.976623 z"
         style="opacity:1;fill:#ffffff;fill-opacity:1;fill-rule:nonzero;stroke:none;stroke-width:3.17015338;stroke-linecap:round;stroke-linejoin:miter;stroke-miterlimit:4;stroke-dasharray:none;stroke-opacity:1" />
      <path
         inkscape:connector-curvature="0"
         inkscape:export-ydpi="162.97362"
         inkscape:export-xdpi="162.97362"
         inkscape:export-filename="C:\Users\emjei\OneDrive\Programming\VizAlgo\PathFinder\Documentation\UI\pngs\logo-white.png"
         id="rect817-4"
         d="m 80.888442,46.21961 v 21.40386 c 0.957106,-0.295098 3.103888,-0.847791 5.596557,-0.773078 3.375914,0.101185 7.709405,1.583407 9.992153,6.279203 9.405018,19.346812 9.096558,31.844215 9.547218,42.435655 0.45066,10.59143 1.48565,19.22107 13.75782,32.94941 4.28329,4.79151 11.51558,6.23631 11.51558,6.23631 a 1.8547002,1.8547002 0 0 1 0.0599,0.0124 V 75.3584 Z m 5.013129,24.333398 c -2.335562,0.0243 -4.250385,0.721403 -4.250385,0.721403 a 1.8547002,1.8547002 0 0 1 -0.762744,0.136427 v 79.746552 l 50.469268,29.13827 v -21.89892 a 1.8547002,1.8547002 0 0 1 -0.72812,0.003 c 0,0 -8.2341,-1.39471 -13.61312,-7.41195 -12.74091,-14.2527 -14.23816,-24.47313 -14.6973,-35.264 -0.45914,-10.79087 -0.0558,-22.208179 -9.177731,-40.972696 -1.652619,-3.399573 -4.223523,-4.116774 -6.767544,-4.193024 -0.159002,-0.0048 -0.316619,-0.0063 -0.472324,-0.0047 z"
         style="opacity:1;fill:#ffffff;fill-opacity:1;fill-rule:nonzero;stroke:none;stroke-width:3.17015338;stroke-linecap:round;stroke-linejoin:miter;stroke-miterlimit:4;stroke-dasharray:none;stroke-opacity:1" />
      <path
         inkscape:connector-curvature="0"
         inkscape:export-ydpi="162.97362"
         inkscape:export-xdpi="162.97362"
         inkscape:export-filename="C:\Users\emjei\OneDrive\Programming\VizAlgo\PathFinder\Documentation\UI\pngs\logo-white.png"
         id="rect817-0"
         d="M 187.46488,46.21961 136.99561,75.3584 v 80.21422 a 1.8547002,1.8547002 0 0 1 0.88625,0.51832 c 0.15516,0.0858 0.35977,0.1959 0.73019,0.35347 0.90989,0.38706 2.37908,0.8908 4.28914,1.2578 3.82013,0.73398 9.40543,0.9396 16.12305,-1.28933 7.55003,-2.50512 10.36677,-5.55243 11.40654,-7.65224 0.51985,-1.04991 0.61458,-1.90369 0.59738,-2.43345 -0.006,-0.16841 -0.0234,-0.22116 -0.0393,-0.30695 a 1.8547002,1.8547002 0 0 1 -0.0207,-2.0004 c -2.72558,-1.80029 -7.99279,-5.96666 -7.99279,-11.30008 a 7.2128292,12.749339 36.948943 0 1 9.58908,-15.12621 7.2128292,12.749339 36.948943 0 1 5.18159,-1.47123 7.2128292,12.749339 36.948943 0 1 4.408,5.52421 c 0,5.873 -6.32406,17.58776 -8.66975,21.73666 0.14934,0.081 0.26968,0.16672 0.34468,0.23306 0.26099,0.23082 0.34049,0.38214 0.416,0.51159 0.15109,0.25891 0.21363,0.44301 0.27543,0.64854 0.12365,0.41109 0.19687,0.87324 0.21497,1.43144 0.0362,1.11639 -0.18387,2.58979 -0.98081,4.19923 -1.59391,3.2189 -5.41336,6.82161 -13.56248,9.52551 -7.36823,2.4448 -13.63528,2.24945 -17.99219,1.41232 -2.17846,-0.41856 -3.87924,-0.99252 -5.04103,-1.48673 -0.0617,-0.0262 -0.10483,-0.0493 -0.1633,-0.0749 v 20.51244 l 50.46927,-29.13827 z m -13.25811,77.00977 a 2.5760103,4.5533349 36.948943 0 0 -1.64227,0.52865 2.5760103,4.5533349 36.948943 0 0 -3.4246,5.40225 2.5760103,4.5533349 36.948943 0 0 3.4246,1.44746 2.5760103,4.5533349 36.948943 0 0 3.42511,-5.40225 2.5760103,4.5533349 36.948943 0 0 -1.78284,-1.97611 z m -36.19985,33.00574 a 1.8547002,1.8547002 0 0 1 0.0915,0.13125 c -0.038,-0.0553 -0.0546,-0.10325 -0.0915,-0.13125 z"
         style="opacity:1;fill:#ffffff;fill-opacity:1;fill-rule:nonzero;stroke:none;stroke-width:3.17015338;stroke-linecap:round;stroke-linejoin:miter;stroke-miterlimit:4;stroke-dasharray:none;stroke-opacity:1" />
    </g>
  </g>
</svg>
