<?xml version="1.0" encoding="UTF-8" standalone="no"?>
<!-- Created with Inkscape (http://www.inkscape.org/) -->

<svg
   xmlns:dc="http://purl.org/dc/elements/1.1/"
   xmlns:cc="http://creativecommons.org/ns#"
   xmlns:rdf="http://www.w3.org/1999/02/22-rdf-syntax-ns#"
   xmlns:svg="http://www.w3.org/2000/svg"
   xmlns="http://www.w3.org/2000/svg"
   xmlns:sodipodi="http://sodipodi.sourceforge.net/DTD/sodipodi-0.dtd"
   xmlns:inkscape="http://www.inkscape.org/namespaces/inkscape"
   width="210mm"
   height="297mm"
   viewBox="0 0 210 297"
   version="1.1"
   id="svg8"
   inkscape:version="0.92.3 (2405546, 2018-03-11)"
   sodipodi:docname="logo-white.svg">
  <defs
     id="defs2" />
  <sodipodi:namedview
     id="base"
     pagecolor="#ffffff"
     bordercolor="#666666"
     borderopacity="1.0"
     inkscape:pageopacity="0.0"
     inkscape:pageshadow="2"
     inkscape:zoom="0.98994949"
     inkscape:cx="433.12143"
     inkscape:cy="716.12726"
     inkscape:document-units="mm"
     inkscape:current-layer="layer1"
     showgrid="false"
     inkscape:window-width="1920"
     inkscape:window-height="1046"
     inkscape:window-x="1589"
     inkscape:window-y="-11"
     inkscape:window-maximized="1" />
  <metadata
     id="metadata5">
    <rdf:RDF>
      <cc:Work
         rdf:about="">
        <dc:format>image/svg+xml</dc:format>
        <dc:type
           rdf:resource="http://purl.org/dc/dcmitype/StillImage" />
        <dc:title></dc:title>
      </cc:Work>
    </rdf:RDF>
  </metadata>
  <g
     inkscape:label="Layer 1"
     inkscape:groupmode="layer"
     id="layer1">
    <path
       style="opacity:1;fill:#ffffff;fill-opacity:1;fill-rule:nonzero;stroke:none;stroke-width:11.98168182;stroke-linecap:round;stroke-linejoin:miter;stroke-miterlimit:4;stroke-dasharray:none;stroke-opacity:1"
       d="M 331.88672 177.71875 L 141.13672 287.84961 L 141.13672 684.46289 L 331.88672 574.33398 L 331.88672 279.86523 C 326.09004 281.52772 304.55891 288.62075 289.21484 306.18555 C 282.76771 313.56577 283.17037 322.32503 281.19141 336.72461 C 279.21244 351.12419 274.23837 369.62543 255.56055 391.21875 C 242.02332 406.86898 226.93596 410.49906 215.88281 409.13477 C 204.82967 407.77047 197.36133 401.90625 197.36133 401.90625 A 7.011072 7.011072 0 0 1 195.74023 392.77148 C 185.46659 386.002 165.42969 370.2149 165.42969 349.99414 A 27.261377 48.186992 36.948943 0 1 201.67383 292.82422 A 27.261377 48.186992 36.948943 0 1 237.91797 308.14258 C 237.91797 330.34357 214.00862 374.63064 205.14648 390.30469 A 7.011072 7.011072 0 0 1 205.98438 390.84961 C 205.98437 390.84961 210.50604 394.34369 217.5957 395.21875 C 224.68536 396.09382 233.89237 394.84514 244.96094 382.04883 C 261.93937 362.4202 265.50764 347.88836 267.30469 334.8125 C 269.10174 321.73663 268.51374 308.57946 278.6582 296.9668 C 300.03599 272.49502 330.32422 265.76367 330.32422 265.76367 A 7.0098904 7.0098904 0 0 1 331.88672 265.57031 L 331.88672 177.71875 z M 207.87891 314.125 A 9.7362062 17.209639 36.948943 0 0 201.67383 316.12305 A 9.7362062 17.209639 36.948943 0 0 188.72852 336.54102 A 9.7362062 17.209639 36.948943 0 0 201.67383 342.01172 A 9.7362062 17.209639 36.948943 0 0 214.61914 321.5957 A 9.7362062 17.209639 36.948943 0 0 207.87891 314.125 z "
       transform="scale(0.26458333)"
       id="rect817" />
    <path
       style="opacity:1;fill:#ffffff;fill-opacity:1;fill-rule:nonzero;stroke:none;stroke-width:11.98168182;stroke-linecap:round;stroke-linejoin:miter;stroke-miterlimit:4;stroke-dasharray:none;stroke-opacity:1"
       d="M 353.19727 177.71875 L 353.19727 258.61523 C 356.81468 257.4999 364.9285 255.41098 374.34961 255.69336 C 387.10897 256.07579 403.48752 261.67789 412.11523 279.42578 C 447.66177 352.54759 446.49594 399.78186 448.19922 439.8125 C 449.9025 479.8431 453.81426 512.45906 500.19727 564.3457 C 516.38608 582.45535 543.7207 587.91602 543.7207 587.91602 A 7.0098905 7.0098905 0 0 1 543.94727 587.96289 L 543.94727 287.84961 L 353.19727 177.71875 z M 372.14453 269.6875 C 363.31721 269.77933 356.08008 272.41406 356.08008 272.41406 A 7.0098905 7.0098905 0 0 1 353.19727 272.92969 L 353.19727 574.33398 L 543.94727 684.46289 L 543.94727 601.69531 A 7.0098905 7.0098905 0 0 1 541.19531 601.70508 C 541.19531 601.70508 510.07429 596.43377 489.74414 573.69141 C 441.58952 519.82297 435.93064 481.19455 434.19531 440.41016 C 432.45998 399.62577 433.98447 356.47374 399.50781 285.55273 C 393.26169 272.70395 383.54489 269.99327 373.92969 269.70508 C 373.32874 269.68707 372.73302 269.68138 372.14453 269.6875 z "
       transform="scale(0.26458333)"
       id="rect817-4" />
    <path
       style="opacity:1;fill:#ffffff;fill-opacity:1;fill-rule:nonzero;stroke:none;stroke-width:11.98168182;stroke-linecap:round;stroke-linejoin:miter;stroke-miterlimit:4;stroke-dasharray:none;stroke-opacity:1"
       d="M 756.00586 177.71875 L 565.25586 287.84961 L 565.25586 591.02148 A 7.0098905 7.0098905 0 0 1 568.60547 592.98047 C 569.1919 593.3046 569.96522 593.72087 571.36523 594.31641 C 574.80419 595.77931 580.35705 597.68323 587.57617 599.07031 C 602.01446 601.84441 623.12424 602.62157 648.51367 594.19727 C 677.04922 584.7291 687.69516 573.21168 691.625 565.27539 C 693.58979 561.30723 693.94782 558.08037 693.88281 556.07812 C 693.86203 555.44161 693.79447 555.24225 693.73438 554.91797 A 7.0098905 7.0098905 0 0 1 693.65625 547.35742 C 683.35485 540.55319 663.44727 524.80628 663.44727 504.64844 A 27.261087 48.186477 36.948943 0 1 699.68945 447.47852 A 27.261087 48.186477 36.948943 0 1 719.27344 441.91797 A 27.261087 48.186477 36.948943 0 1 735.93359 462.79688 C 735.93359 484.99404 712.03162 529.27029 703.16602 544.95117 C 703.73047 545.25742 704.18528 545.58132 704.46875 545.83203 C 705.45517 546.70442 705.75566 547.27633 706.04102 547.76562 C 706.6121 548.74418 706.84846 549.43999 707.08203 550.2168 C 707.54937 551.77049 707.82612 553.51722 707.89453 555.62695 C 708.03139 559.84638 707.19959 565.41512 704.1875 571.49805 C 698.16327 583.66397 683.72756 597.2805 652.92773 607.5 C 625.07931 616.74019 601.39284 616.00185 584.92578 612.83789 C 576.69223 611.25593 570.26406 609.08663 565.87305 607.21875 C 565.63995 607.11959 565.47686 607.03243 565.25586 606.93555 L 565.25586 684.46289 L 756.00586 574.33398 L 756.00586 177.71875 z M 705.89648 468.7793 A 9.7361022 17.209455 36.948943 0 0 699.68945 470.77734 A 9.7361022 17.209455 36.948943 0 0 686.74609 491.19531 A 9.7361022 17.209455 36.948943 0 0 699.68945 496.66602 A 9.7361022 17.209455 36.948943 0 0 712.63477 476.24805 A 9.7361022 17.209455 36.948943 0 0 705.89648 468.7793 z M 569.07812 593.52539 A 7.0098905 7.0098905 0 0 1 569.42383 594.02148 C 569.28021 593.81263 569.21759 593.63122 569.07812 593.52539 z "
       transform="scale(0.26458333)"
       id="rect817-0" />
  </g>
</svg>
