<?xml version="1.0" encoding="UTF-8" standalone="no"?>
<!-- Created with Inkscape (http://www.inkscape.org/) -->

<svg
   xmlns:dc="http://purl.org/dc/elements/1.1/"
   xmlns:cc="http://creativecommons.org/ns#"
   xmlns:rdf="http://www.w3.org/1999/02/22-rdf-syntax-ns#"
   xmlns:svg="http://www.w3.org/2000/svg"
   xmlns="http://www.w3.org/2000/svg"
   xmlns:sodipodi="http://sodipodi.sourceforge.net/DTD/sodipodi-0.dtd"
   xmlns:inkscape="http://www.inkscape.org/namespaces/inkscape"
   width="210mm"
   height="297mm"
   viewBox="0 0 210 297"
   version="1.1"
   id="svg8"
   inkscape:version="0.92.3 (2405546, 2018-03-11)"
   sodipodi:docname="map-ex.svg">
  <defs
     id="defs2" />
  <sodipodi:namedview
     id="base"
     pagecolor="#ffffff"
     bordercolor="#666666"
     borderopacity="1.0"
     inkscape:pageopacity="0.0"
     inkscape:pageshadow="2"
     inkscape:zoom="0.7"
     inkscape:cx="356.8524"
     inkscape:cy="164.4436"
     inkscape:document-units="mm"
     inkscape:current-layer="layer1"
     showgrid="false"
     inkscape:snap-global="false"
     inkscape:window-width="1920"
     inkscape:window-height="1046"
     inkscape:window-x="1589"
     inkscape:window-y="-11"
     inkscape:window-maximized="1" />
  <metadata
     id="metadata5">
    <rdf:RDF>
      <cc:Work
         rdf:about="">
        <dc:format>image/svg+xml</dc:format>
        <dc:type
           rdf:resource="http://purl.org/dc/dcmitype/StillImage" />
        <dc:title></dc:title>
      </cc:Work>
    </rdf:RDF>
  </metadata>
  <g
     inkscape:label="Layer 1"
     inkscape:groupmode="layer"
     id="layer1">
    <rect
       style="opacity:1;fill:#46505e;fill-opacity:1;fill-rule:nonzero;stroke:none;stroke-width:4.07439327;stroke-linecap:round;stroke-linejoin:round;stroke-miterlimit:4;stroke-dasharray:none;stroke-opacity:1"
       id="rect1201"
       width="381"
       height="285.75"
       x="-24.450712"
       y="101.4491"
       inkscape:export-xdpi="96"
       inkscape:export-ydpi="96" />
    <path
       style="opacity:1;fill:#232f3f;fill-opacity:1;fill-rule:nonzero;stroke:#46505e;stroke-width:12.36322021;stroke-linecap:round;stroke-linejoin:round;stroke-miterlimit:4;stroke-dasharray:none;stroke-opacity:1"
       d="M -72.126953 389.61133 L 70.986328 496.51758 L 196.2832 402.91992 L 178.46875 389.61133 L -72.126953 389.61133 z M 203.71875 389.61133 L 208.9082 393.48828 L 214.09766 389.61133 L 203.71875 389.61133 z M 239.35938 389.61133 L 221.53906 402.92383 L 350.47266 499.23633 L 474.39258 406.66797 L 451.56055 389.61133 L 239.35938 389.61133 z M 476.82422 389.61133 L 487.02539 397.23242 L 497.22656 389.61133 L 476.82422 389.61133 z M 522.49414 389.61133 L 499.66016 406.66992 L 718.10352 569.84766 L 834.7207 482.73438 L 710.05859 389.61133 L 522.49414 389.61133 z M 735.31836 389.61133 L 847.34961 473.29883 L 959.38086 389.61133 L 735.31836 389.61133 z M 984.64844 389.61133 L 859.98242 482.73633 L 1047.6035 622.89062 L 1179.3242 524.49414 L 998.75977 389.61133 L 984.64844 389.61133 z M 1024.0234 389.61133 L 1191.9551 515.05859 L 1270.7617 456.18945 L 1181.6328 389.61133 L 1024.0234 389.61133 z M 1206.8945 389.61133 L 1283.3926 446.75586 L 1341.4062 403.41797 L 1341.4062 389.61133 L 1206.8945 389.61133 z M -86.230469 397.95117 L -86.230469 562.38086 L -51.708984 588.16797 L 58.351562 505.95312 L -86.230469 397.95117 z M 208.91406 412.35352 L 83.617188 505.95312 L 212.55078 602.26562 L 337.84766 508.66797 L 208.91406 412.35352 z M 487.02734 416.10547 L 363.10742 508.67383 L 581.55078 671.85156 L 705.4707 579.2832 L 487.02734 416.10547 z M 1341.4062 422.29102 L 1296.0234 456.19141 L 1341.4062 490.0918 L 1341.4062 422.29102 z M 1283.3926 465.62695 L 1204.5879 524.49414 L 1341.4062 626.69727 L 1341.4062 508.96289 L 1283.3926 465.62695 z M 847.35352 492.17188 L 730.73633 579.28516 L 918.35547 719.43945 L 1034.9746 632.32422 L 847.35352 492.17188 z M 70.984375 515.38867 L -39.076172 597.60547 L 89.857422 693.91797 L 199.91797 611.70312 L 70.984375 515.38867 z M 350.48047 518.10547 L 225.18359 611.70312 L 443.62891 774.88086 L 568.92383 681.28516 L 350.48047 518.10547 z M 1191.957 533.92969 L 1060.2344 632.32617 L 1253.998 777.07031 L 1341.4062 711.77539 L 1341.4062 645.56836 L 1191.957 533.92969 z M -86.230469 581.24414 L -86.230469 613.95703 L -64.333984 597.60156 L -86.230469 581.24414 z M 718.10547 588.7207 L 594.18555 681.28906 L 781.80664 821.44141 L 905.72461 728.875 L 718.10547 588.7207 z M -51.703125 607.03711 L -86.230469 632.83008 L -86.230469 733.81055 L -24.888672 779.63477 L 77.230469 703.35156 L -51.703125 607.03711 z M 212.55078 621.14062 L 102.49023 703.35547 L 320.93555 866.5332 L 430.99609 784.31836 L 212.55078 621.14062 z M 1047.6055 641.75977 L 930.98633 728.87305 L 1124.752 873.61719 L 1241.3711 786.50195 L 1047.6055 641.75977 z M 581.55859 690.72266 L 456.26172 784.31836 L 643.88477 924.47266 L 769.17773 830.87695 L 581.55859 690.72266 z M 89.863281 712.78711 L -12.255859 789.07031 L 206.1875 952.25 L 308.30664 875.9668 L 89.863281 712.78711 z M 1341.4062 730.64648 L 1266.6289 786.50391 L 1341.4062 842.36328 L 1341.4062 730.64648 z M 918.35547 738.30859 L 794.43555 830.87695 L 988.20312 975.61914 L 1112.1211 883.05273 L 918.35547 738.30859 z M -86.230469 752.68359 L -86.230469 825.45703 L -37.519531 789.07031 L -86.230469 752.68359 z M 443.62891 793.75586 L 333.56836 875.9707 L 521.19141 1016.125 L 631.25195 933.9082 L 443.62891 793.75586 z M 1254.002 795.9375 L 1137.3828 883.05273 L 1310.3105 1012.2305 L 1341.4062 989.00195 L 1341.4062 861.22852 L 1254.002 795.9375 z M -24.886719 798.50586 L -86.230469 844.33008 L -86.230469 888.16211 L 102.875 1029.4258 L 193.55664 961.68555 L -24.886719 798.50586 z M 781.80664 840.31055 L 656.51172 933.90625 L 850.2793 1078.6504 L 975.57422 985.05469 L 781.80664 840.31055 z M 320.94141 885.4043 L 218.82227 961.6875 L 406.44336 1101.8418 L 508.5625 1025.5586 L 320.94141 885.4043 z M 1124.752 892.48828 L 1000.834 985.05469 L 1173.7637 1114.2324 L 1297.6797 1021.666 L 1124.752 892.48828 z M -86.230469 907.03125 L -86.230469 1051.9004 L -6.7207031 1111.2949 L 90.246094 1038.8594 L -86.230469 907.03125 z M 643.87891 943.3418 L 533.81836 1025.5566 L 727.58789 1170.3027 L 837.64844 1088.0879 L 643.87891 943.3418 z M 206.19141 971.12305 L 115.50977 1038.8633 L 303.13086 1179.0176 L 393.8125 1111.2773 L 206.19141 971.12305 z M 988.20312 994.49023 L 862.91016 1088.084 L 1035.8379 1217.2617 L 1161.1309 1123.668 L 988.20312 994.49023 z M 1341.4062 1007.8711 L 1322.9395 1021.666 L 1341.4062 1035.4609 L 1341.4062 1007.8711 z M 1310.3086 1031.0996 L 1186.3926 1123.666 L 1341.4062 1239.4609 L 1341.4062 1054.3301 L 1310.3086 1031.0996 z M 521.18945 1034.9922 L 419.07031 1111.2734 L 612.83984 1256.0215 L 714.95898 1179.7383 L 521.18945 1034.9922 z M 102.88086 1048.2969 L 5.9121094 1120.7324 L 193.5332 1260.8867 L 290.50195 1188.4512 L 102.88086 1048.2969 z M -86.230469 1070.7734 L -86.230469 1170.6875 L -19.353516 1120.7305 L -86.230469 1070.7734 z M 850.27734 1097.5215 L 740.2168 1179.7363 L 913.14453 1308.9141 L 1023.2051 1226.6992 L 850.27734 1097.5215 z M 406.43945 1120.709 L 315.75781 1188.4492 L 509.52734 1333.1953 L 600.20898 1265.457 L 406.43945 1120.709 z M -6.7207031 1130.168 L -86.230469 1189.5625 L -86.230469 1228.8184 L 75.115234 1349.3457 L 180.90234 1270.3223 L -6.7207031 1130.168 z M 1173.7598 1133.1016 L 1048.4668 1226.6953 L 1218.5098 1353.7188 L 1341.4062 1261.9141 L 1341.4062 1258.334 L 1173.7598 1133.1016 z M 727.58594 1189.1719 L 625.4668 1265.4531 L 798.39648 1394.6328 L 900.51367 1318.3496 L 727.58594 1189.1719 z M 303.12891 1197.8828 L 206.16016 1270.3184 L 399.92969 1415.0664 L 496.90039 1342.6289 L 303.12891 1197.8828 z M 1035.834 1236.1328 L 925.77344 1318.3477 L 1095.8184 1445.3711 L 1205.877 1363.1543 L 1035.834 1236.1328 z M -86.230469 1247.6875 L -86.230469 1364.8574 L -15.939453 1417.3652 L 62.488281 1358.7793 L -86.230469 1247.6875 z M 612.83594 1274.8887 L 522.1543 1342.627 L 675.59375 1457.248 L 714.57422 1457.248 L 785.76562 1404.0684 L 612.83594 1274.8887 z M 193.52734 1279.7539 L 87.740234 1358.7773 L 219.5625 1457.248 L 343.46289 1457.248 L 387.29883 1424.502 L 193.52734 1279.7539 z M 1341.4062 1280.7852 L 1231.1406 1363.1543 L 1341.4062 1445.5215 L 1341.4062 1280.7852 z M 913.14258 1327.7832 L 811.02344 1404.0664 L 882.2168 1457.248 L 1079.918 1457.248 L 1083.1855 1454.8066 L 913.14258 1327.7832 z M 509.52539 1352.0605 L 412.55469 1424.498 L 456.39844 1457.248 L 650.33789 1457.248 L 509.52539 1352.0605 z M 75.111328 1368.2109 L -3.3144531 1426.7949 L 37.453125 1457.248 L 194.30664 1457.248 L 75.111328 1368.2109 z M 1218.5078 1372.5898 L 1108.4473 1454.8047 L 1111.7188 1457.248 L 1331.8398 1457.248 L 1218.5078 1372.5898 z M -86.230469 1383.7305 L -86.230469 1457.248 L -64.363281 1457.248 L -66.142578 1454.8672 L -28.572266 1426.8027 L -86.230469 1383.7305 z M 798.39453 1413.502 L 739.83203 1457.248 L 856.95703 1457.248 L 798.39453 1413.502 z M 399.92383 1433.9336 L 368.71289 1457.248 L 431.13477 1457.248 L 399.92383 1433.9336 z M -15.947266 1436.2324 L -44.082031 1457.248 L 12.185547 1457.248 L -15.947266 1436.2324 z "
       id="rect878"
       transform="scale(0.26458333)"
       inkscape:export-xdpi="96"
       inkscape:export-ydpi="96" />
    <path
       style="fill:none;stroke:#e85f62;stroke-width:4.96648455;stroke-linecap:round;stroke-linejoin:miter;stroke-miterlimit:4;stroke-dasharray:none;stroke-opacity:1"
       d="M -19.052317,308.62734 88.710893,229.25337"
       id="path1206"
       inkscape:connector-curvature="0" />
    <path
       style="fill:none;stroke:#e85f62;stroke-width:4.92283249;stroke-linecap:round;stroke-linejoin:miter;stroke-miterlimit:4;stroke-dasharray:none;stroke-opacity:1"
       d="M -19.830431,283.26982 69.96469,349.95564"
       id="path1208"
       inkscape:connector-curvature="0" />
    <path
       style="fill:none;stroke:#e85f62;stroke-width:4.96753407;stroke-linecap:round;stroke-linejoin:miter;stroke-miterlimit:4;stroke-dasharray:none;stroke-opacity:1"
       d="m -12.867637,244.82288 80.541822,59.75304"
       id="path1210"
       inkscape:connector-curvature="0" />
    <path
       style="fill:none;stroke:#e85f62;stroke-width:5.09185219;stroke-linecap:round;stroke-linejoin:miter;stroke-miterlimit:4;stroke-dasharray:none;stroke-opacity:1"
       d="m 11.746822,222.95709 87.631354,64.55306"
       id="path1212"
       inkscape:connector-curvature="0" />
    <path
       style="fill:none;stroke:#e85f62;stroke-width:5.53804636;stroke-linecap:round;stroke-linejoin:miter;stroke-miterlimit:4;stroke-dasharray:none;stroke-opacity:1"
       d="M 30.510243,351.5349 81.125541,313.58207"
       id="path1214"
       inkscape:connector-curvature="0" />
  </g>
</svg>
